HIERARCHY
ROOT Hips
{
  OFFSET 74.0196 97.4445 -31.1285
  CHANNELS 6 Xposition Yposition Zposition Zrotation Xrotation Yrotation
  JOINT RightUpLeg
  {
    OFFSET -8.9458 -8.66707 0.101652
    CHANNELS 3 Zrotation Xrotation Yrotation
    JOINT RightLeg
    {
      OFFSET -2.94875e-013 -44.4227 1.3727
      CHANNELS 3 Zrotation Xrotation Yrotation
      JOINT RightFoot
      {
        OFFSET 0.253549 -42.0924 -1.46059
        CHANNELS 3 Zrotation Xrotation Yrotation
        JOINT RightToes
        {
          OFFSET 0.04 -4.41509 8.4991
          CHANNELS 3 Zrotation Xrotation Yrotation
          End Site
          {
            OFFSET -0.08 -0.137448 9.77979
          }
        }
      }
    }
  }
  JOINT Spine
  {
    OFFSET -5.68434e-014 11.8905 -6.39488e-014
    CHANNELS 3 Zrotation Xrotation Yrotation
    JOINT Spine1
    {
      OFFSET 5.68434e-014 25.6574 0.127663
      CHANNELS 3 Zrotation Xrotation Yrotation
      JOINT HEad
      {
        OFFSET 4.26326e-014 8.73416 0.011341
        CHANNELS 3 Zrotation Xrotation Yrotation
        End Site
        {
          OFFSET -0.29 12.7742 2.51395
        }
      }
      JOINT LeftShoulder1
      {
        OFFSET 8.99 -0.362252 -0.22
        CHANNELS 3 Zrotation Xrotation Yrotation
        JOINT LeftArm
        {
          OFFSET 10.2827 -0.00338 0.322123
          CHANNELS 3 Zrotation Xrotation Yrotation
          JOINT LeftForeArm
          {
            OFFSET 32.7669 0.099144 -1.42434
            CHANNELS 3 Zrotation Xrotation Yrotation
            JOINT LeftHand
            {
              OFFSET 27.5643 0.085362 1.02216
              CHANNELS 3 Zrotation Xrotation Yrotation
              End Site
              {
                OFFSET 16.7443 -0.6 1.50291
              }
            }
          }
        }
      }
      JOINT RightShoulder
      {
        OFFSET -8.99 -0.362252 -0.22
        CHANNELS 3 Zrotation Xrotation Yrotation
        JOINT RightArm
        {
          OFFSET -10.2827 -0.00338 0.322123
          CHANNELS 3 Zrotation Xrotation Yrotation
          JOINT RightForeArm
          {
            OFFSET -32.8971 0.099144 -1.42434
            CHANNELS 3 Zrotation Xrotation Yrotation
            JOINT RightHand
            {
              OFFSET -27.4921 0.085362 1.02216
              CHANNELS 3 Zrotation Xrotation Yrotation
              End Site
              {
                OFFSET -16.6312 -0.6 1.50291
              }
            }
          }
        }
      }
    }
  }
  JOINT LeftUpLeg
  {
    OFFSET 8.9458 -8.66707 0.101652
    CHANNELS 3 Zrotation Xrotation Yrotation
    JOINT LeftLeg
    {
      OFFSET 7.10543e-014 -44.4227 1.3727
      CHANNELS 3 Zrotation Xrotation Yrotation
      JOINT LeftFoot
      {
        OFFSET -0.253549 -42.0924 -1.46059
        CHANNELS 3 Zrotation Xrotation Yrotation
        JOINT LeftToes
        {
          OFFSET -0.04 -4.41509 8.4991
          CHANNELS 3 Zrotation Xrotation Yrotation
          End Site
          {
            OFFSET 0.08 -0.047448 9.77979
          }
        }
      }
    }
  }
}
MOTION
Frames:	20
Frame Time:	0.0166667
70.268 90.4108 12.2015 1.09517 0.677736 -150.18 -14.9755 -6.03257 -0.808272 14.6612 49.5655 -11.4139 -0.819673 -12.8708 -0.244325 -24.3996 -34.3707 -12.4695 0.849548 6.21148 4.33798 1.51383 12.3764 8.97299 -6.44436 -6.62951 17.6595 -5.03302e-021 -3.88251e-019 1.21329e-020 -64.2512 -55.5486 -32.9024 3.0856 44.2609 -96.5701 34.604 7.87608 -2.3934 11.9267 3.49195 20.4863 75.5553 -22.5281 48.1425 -19.9925 39.1787 144.736 -14.6142 14.9252 -44.7943 25.4304 -26.3375 8.02947 -3.31883 33.8153 -5.3236 -10.8931 3.18319 0.997456 9.76954 -13.0481 -0.45825 
71.7539 90.232 12.3789 0.299986 1.02633 -150.609 -14.9236 -6.80645 -1.22923 14.3681 51.2485 -11.635 -1.11071 -11.564 -0.236086 -26.8191 -36.724 -13.7732 1.07072 6.11534 3.88078 1.92513 12.2015 8.06933 -6.55743 -5.5675 19.5412 -5.03302e-021 -3.88251e-019 1.21329e-020 -61.6723 -54.1691 -28.7883 1.27118 44.2675 -93.683 34.3583 7.49935 -3.69742 12.5565 3.56378 20.143 74.3759 -20.6215 46.5583 -19.5453 38.22 144.553 -13.711 14.6961 -45.5739 25.2045 -25.1952 7.12744 -3.12678 32.2128 -5.165 -11.1833 3.51088 1.05496 8.80755 -11.4977 0.640104 
73.3456 90.142 12.517 -0.501282 1.22208 -150.946 -14.7533 -7.48312 -1.63356 13.9556 52.4185 -12.2163 -1.54023 -9.97721 -0.218655 -29.7709 -39.3307 -15.5373 1.1473 6.05982 3.36567 2.09215 12.0882 7.05379 -6.32504 -4.81996 21.0562 -5.03302e-021 -3.88251e-019 1.21329e-020 -59.0585 -53.0749 -23.979 -2.08792 43.9508 -90.6201 33.4285 6.71657 -6.60615 13.1213 3.61207 19.7566 73.3439 -18.931 44.9757 -18.8333 37.4324 144.314 -12.7998 14.4504 -46.3487 24.7325 -24.0214 6.16363 -2.60022 30.209 -5.2708 -11.4753 3.5632 1.08853 7.17921 -9.10352 1.96147 
75.0307 90.1274 12.6319 -1.27252 1.26747 -151.165 -14.4612 -7.99136 -2.01053 13.4841 52.9594 -13.1909 -2.26955 -8.25363 -0.187573 -33.2365 -42.0552 -17.7861 1.12077 6.02191 2.85998 2.08291 11.9971 6.05799 -5.88074 -4.28753 21.9893 -5.03302e-021 -3.88251e-019 1.21329e-020 -56.7184 -52.1233 -19.0285 -6.52919 43.2905 -87.7352 31.6506 5.7799 -10.6214 13.6044 3.64256 19.38 72.437 -17.7054 43.5261 -17.9751 36.835 144.059 -11.9104 14.1909 -47.0397 24.0898 -22.9096 5.21713 -1.79333 27.9131 -5.62552 -11.7787 3.4234 1.10501 4.9878 -6.09661 3.38643 
76.7962 90.1751 12.7419 -1.98 1.18201 -151.245 -14.04 -8.30007 -2.35538 12.9896 52.8517 -14.5306 -3.39372 -6.53778 -0.130854 -37.0484 -44.6566 -20.4664 1.04347 5.99057 2.42239 1.97798 11.9136 5.19688 -5.4071 -3.90939 22.2443 -5.03302e-021 -3.88251e-019 1.21329e-020 -54.9086 -51.2424 -14.5927 -11.2023 42.4292 -85.4661 29.1283 5.03141 -14.8894 13.9475 3.64835 19.0316 71.738 -17.0926 42.4018 -17.1373 36.4779 143.853 -11.095 13.932 -47.5657 23.3695 -21.9518 4.36474 -0.807486 25.4722 -6.23746 -12.1263 3.22312 1.11902 2.46985 -2.84167 4.77925 
78.6286 90.2825 12.8629 -2.60081 0.994501 -151.179 -13.4759 -8.42626 -2.6652 12.4565 52.166 -16.1261 -4.90229 -4.96037 -0.0376894 -40.8639 -46.865 -23.3683 0.958633 5.96787 2.09342 1.84199 11.8474 4.5494 -5.07272 -3.68345 21.8657 -5.03302e-021 -3.88251e-019 1.21329e-020 -53.7387 -50.4502 -11.2219 -15.1157 41.6055 -84.2137 26.4013 4.64837 -18.5864 14.0923 3.61962 18.7083 71.3795 -17.1153 41.7864 -16.4894 36.4017 143.77 -10.4109 13.6969 -47.8866 22.6605 -21.2243 3.66543 0.218284 23.0668 -7.14423 -12.5617 3.09721 1.14776 -0.0444014 0.245925 6.00029 
80.5136 90.4648 13.0043 -3.12659 0.73575 -150.984 -12.7509 -8.42505 -2.93503 11.8246 51.03 -17.7919 -6.67032 -3.6135 0.0918621 -44.2363 -48.4997 -26.1245 0.886188 5.96383 1.89226 1.70614 11.8211 4.15249 -4.97559 -3.64095 21.0135 -5.03302e-021 -3.88251e-019 1.21329e-020 -53.1672 -49.8357 -9.22532 -17.5283 41.0274 -84.1801 24.2285 4.52516 -21.2714 14.0222 3.55433 18.4055 71.4574 -17.6665 41.7755 -16.1596 36.5774 143.88 -9.89174 13.506 -48.0224 22.024 -20.7812 3.15046 1.14143 20.9076 -8.39588 -13.128 3.13368 1.20541 -2.20448 2.79314 6.91561 
82.435 90.7562 13.1667 -3.56082 0.432614 -150.696 -11.8518 -8.36625 -3.15636 11.0245 49.5799 -19.294 -8.48322 -2.52884 0.244091 -46.759 -49.5316 -28.3115 0.819132 5.98836 1.81873 1.56634 11.8536 4.0061 -5.11944 -3.80072 19.9053 -5.03302e-021 -3.88251e-019 1.21329e-020 -53.0701 -49.5238 -8.64789 -18.1656 40.7764 -85.3314 23.1829 4.437 -22.8731 13.7785 3.46281 18.1295 71.9619 -18.5377 42.3221 -16.2014 36.8796 144.223 -9.52907 13.365 -48.04 21.4786 -20.6555 2.8245 1.85782 19.2241 -10.013 -13.8579 3.33897 1.29846 -3.73073 4.5482 7.41996 
84.3739 91.2027 13.343 -3.91002 0.103464 -150.365 -10.7798 -8.30947 -3.32295 10.0173 47.9169 -20.3808 -10.0839 -1.67843 0.397085 -48.1786 -50.0502 -29.5761 0.731708 6.04413 1.85798 1.39513 11.9463 4.08334 -5.42788 -4.13622 18.7543 -5.03302e-021 -3.88251e-019 1.21329e-020 -53.3224 -49.6305 -9.32372 -17.1772 40.8057 -87.4718 23.4236 4.25348 -23.4519 13.4478 3.36526 17.9022 72.7551 -19.4826 43.2334 -16.5789 37.1242 144.781 -9.28428 13.2671 -48.02 21.005 -20.8608 2.67407 2.32564 18.2327 -11.9315 -14.7558 3.64314 1.42298 -4.49434 5.42613 7.47388 
86.3096 91.8495 13.5212 -4.17264 -0.243635 -150.048 -9.55736 -8.29065 -3.44403 8.81577 46.0856 -20.8053 -11.2213 -1.00387 0.527752 -48.3984 -50.1776 -29.6864 0.596016 6.1225 1.98628 1.16091 12.0775 4.34102 -5.78418 -4.57175 17.7286 -5.03302e-021 -3.88251e-019 1.21329e-020 -53.8428 -50.211 -10.9518 -15.0042 40.9956 -90.3095 24.7105 4.00108 -23.1003 13.1318 3.28541 17.7581 73.6065 -20.2947 44.2224 -17.1752 37.1494 145.466 -9.12149 13.2036 -48.0249 20.5669 -21.388 2.67972 2.56028 18.0812 -13.963 -15.7724 3.95629 1.56587 -4.54756 5.50956 7.12591 
88.2204 92.727 13.6899 -4.33119 -0.609586 -149.802 -8.22811 -8.32447 -3.55829 7.48131 44.0851 -20.3416 -11.6783 -0.457066 0.613981 -47.4014 -49.9883 -28.5064 0.399218 6.20416 2.17727 0.84609 12.2058 4.72952 -6.0785 -5.00515 16.9301 -5.03302e-021 -3.88251e-019 1.21329e-020 -54.5818 -51.2183 -13.1614 -12.2384 41.2134 -93.5018 26.5714 3.78643 -22.0222 12.9154 3.24366 17.7362 74.2765 -20.8618 45.0002 -17.8284 36.8934 146.141 -9.04217 13.1763 -48.0714 20.1384 -22.1984 2.8266 2.60768 18.7943 -15.8034 -16.7935 4.24442 1.71156 -4.08045 5.00215 6.49476 
90.0858 93.8408 13.8422 -4.35279 -1.00005 -149.682 -6.85271 -8.41596 -3.73971 6.10116 41.8976 -18.8106 -11.2764 -0.0198031 0.634253 -45.1899 -49.4625 -25.9696 0.151411 6.26481 2.40756 0.457147 12.2843 5.20139 -6.24507 -5.34386 16.3922 -5.03302e-021 -3.88251e-019 1.21329e-020 -55.4723 -52.5094 -15.5609 -9.44995 41.3586 -96.7282 28.5277 3.6802 -20.5716 12.8434 3.25172 17.8647 74.6054 -21.1705 45.3704 -18.382 36.4254 146.665 -9.09533 13.2011 -48.1194 19.7224 -23.2254 3.10804 2.51233 20.2655 -17.0968 -17.6606 4.55967 1.85 -3.32816 4.15 5.72118 
91.889 95.1671 13.9783 -4.2005 -1.42128 -149.731 -5.50277 -8.56915 -4.08702 4.76101 39.5175 -16.1283 -9.8815 0.316545 0.571355 -41.8066 -48.4747 -22.1131 -0.121593 6.28398 2.66018 0.0238028 12.2771 5.7174 -6.27889 -5.5346 16.0856 -5.03302e-021 -3.88251e-019 1.21329e-020 -56.3961 -53.9006 -17.7832 -7.03113 41.3767 -99.7747 30.2597 3.66784 -19.1398 12.9121 3.30908 18.1435 74.5614 -21.2756 45.281 -18.7233 35.9198 146.934 -9.35815 13.301 -48.0769 19.3527 -24.3933 3.51934 2.29426 22.3109 -17.5353 -18.2188 4.98698 1.97606 -2.49482 3.17592 4.92783 
93.6187 96.6523 14.1039 -3.85251 -1.87703 -149.974 -4.25355 -8.78465 -4.69655 3.524 36.9629 -12.3735 -7.44284 0.608151 0.42103 -37.4436 -46.8323 -17.1892 -0.397652 6.25294 2.92493 -0.410971 12.173 6.24845 -6.22788 -5.5741 15.9356 -5.03302e-021 -3.88251e-019 1.21329e-020 -57.2037 -55.2335 -19.5397 -5.15067 41.2533 -102.559 31.6375 3.68632 -18.0096 13.076 3.40248 18.5337 74.2271 -21.2608 44.8171 -18.797 35.5877 146.909 -9.89456 13.49 -47.8333 19.0773 -25.6406 4.04612 1.94222 24.7517 -16.9528 -18.3682 5.55253 2.08007 -1.73052 2.25733 4.19986 
95.2685 98.2169 14.2268 -3.31982 -2.36541 -150.404 -3.17195 -9.04954 -5.62638 2.42332 34.2744 -7.83856 -4.07308 1.01805 0.194026 -32.5683 -44.4062 -11.7801 -0.675321 6.17732 3.19495 -0.804748 11.9883 6.77297 -6.16589 -5.49825 15.8482 -5.03302e-021 -3.88251e-019 1.21329e-020 -57.7743 -56.4089 -20.6699 -3.81062 41.006 -105.089 32.658 3.68032 -17.2979 13.2687 3.50921 18.9641 73.7444 -21.2077 44.1458 -18.6009 35.5947 146.606 -10.7134 13.7583 -47.3065 18.9306 -26.9288 4.65468 1.42236 27.4657 -15.3758 -18.1003 6.18419 2.14435 -1.1325 1.521 3.57171 
96.8337 99.7675 14.3521 -2.65012 -2.87265 -150.976 -2.29902 -9.33461 -6.8578 1.47031 31.5305 -3.01387 -0.109286 1.78941 -0.100814 -27.8965 -41.3497 -6.72876 -0.969412 6.07356 3.46076 -1.12621 11.7598 7.2714 -6.16031 -5.35563 15.7368 -5.03302e-021 -3.88251e-019 1.21329e-020 -58.0629 -57.3759 -21.1591 -2.92642 40.6747 -107.407 33.3723 3.62679 -16.9872 13.4297 3.60447 19.3525 73.2478 -21.1747 43.4413 -18.1772 35.9955 146.087 -11.7457 14.0685 -46.4894 18.9079 -28.2288 5.29415 0.701485 30.3809 -13.019 -17.5099 6.76544 2.15677 -0.731434 1.01554 3.01429 
98.3084 101.214 14.4794 -1.9118 -3.36552 -151.615 -1.64264 -9.61036 -8.26954 0.66586 28.8966 1.50493 3.92493 3.08658 -0.469286 -24.1301 -38.2256 -2.80045 -1.28328 5.9625 3.70664 -1.35843 11.532 7.72215 -6.24827 -5.17973 15.5416 -5.03302e-021 -3.88251e-019 1.21329e-020 -58.1056 -58.0988 -21.1115 -2.37652 40.3018 -109.55 33.844 3.53133 -16.9837 13.5293 3.67024 19.6296 72.8197 -21.1854 42.8216 -17.6036 36.7095 145.447 -12.8559 14.3678 -45.4688 18.9583 -29.4973 5.91082 -0.219346 33.4305 -10.2385 -16.7716 7.23795 2.12831 -0.468611 0.674219 2.44161 
99.6919 102.438 14.611 -1.16919 -3.80187 -152.211 -1.22114 -9.99936 -9.64918 0.00909862 26.908 5.13016 7.43902 4.69118 -0.892263 -21.6387 -35.7478 -0.338698 -1.62293 5.88286 3.90467 -1.50748 11.3509 8.10192 -6.43016 -4.97155 15.2357 -5.03302e-021 -3.88251e-019 1.21329e-020 -57.9906 -58.5287 -20.6965 -2.02592 39.9091 -111.538 34.1345 3.41514 -17.1657 13.5769 3.70105 19.7573 72.4762 -21.2322 42.3148 -16.9808 37.5499 144.796 -13.8808 14.6104 -44.4057 19.0101 -30.7688 6.47615 -1.27089 36.6731 -7.4857 -16.0819 7.60703 2.08665 -0.199385 0.314031 1.7408 
100.967 103.433 14.728 -0.4796 -4.11891 -152.688 -1.06766 -10.4272 -10.7339 -0.488204 25.7751 7.40543 9.91897 6.32635 -1.29037 -20.3576 -34.2703 0.739162 -1.91411 5.83261 4.05188 -1.56252 11.2331 8.38744 -6.67864 -4.70041 14.8206 -5.03302e-021 -3.88251e-019 1.21329e-020 -57.8259 -58.5946 -20.0953 -1.74188 39.4838 -113.377 34.2983 3.30326 -17.4146 13.6117 3.70381 19.7335 72.1814 -21.2925 41.8656 -16.4133 38.2864 144.254 -14.676 14.7724 -43.4866 18.9232 -31.861 6.96899 -2.29128 39.8408 -5.17337 -15.6165 8.10949 2.08896 0.258348 -0.308911 0.80873 
102.124 104.206 14.8181 0.140444 -4.25976 -152.98 -1.21887 -10.8037 -11.2948 -0.770399 25.6126 8.03794 11.0322 7.65249 -1.54511 -19.8922 -33.5461 0.73628 -2.05406 5.80764 4.14467 -1.51797 11.1768 8.56213 -6.95489 -4.31991 14.3161 -5.03302e-021 -3.88251e-019 1.21329e-020 -57.7145 -58.2186 -19.4627 -1.41424 38.9852 -115.063 34.3808 3.21682 -17.6347 13.6798 3.69212 19.5866 71.8787 -21.3451 41.3711 -15.9844 38.7131 143.92 -15.1465 14.8519 -42.8685 18.5837 -32.6398 7.39374 -3.04177 42.7259 -3.6659 -15.4862 8.98462 2.18336 1.0542 -1.41884 -0.421394 
